# xmcd
#
# Track frame offsets:
#	150
#	16960
#	34285
#
# Disc length: 640 seconds
#
# Revision: 3
# Processed by: cddbd v1.5.2PL0 Copyright (c) Steve Scherf et al.
# Submitted via: EasyCDDAExtractor 10.0.3.1
#
DISCID=1c027e03
DTITLE=Sherry Rich - Polite Kisses
DYEAR=1997
DGENRE=AltCountry
TTITLE0=Polite Kisses
TTITLE1=Little Miss Cool
TTITLE2=Funny How Things Change
EXTD=
EXTT0=
EXTT1=
EXTT2=
PLAYORDER=
